<?xml version="1.0" standalone="no"?>
<!DOCTYPE svg PUBLIC "-//W3C//DTD SVG 20010904//EN"
 "http://www.w3.org/TR/2001/REC-SVG-20010904/DTD/svg10.dtd">
<svg version="1.0" xmlns="http://www.w3.org/2000/svg"
 width="2000.000000pt" height="1500.000000pt" viewBox="0 0 2000.000000 1500.000000"
 preserveAspectRatio="xMidYMid meet">

<g transform="translate(0.000000,1500.000000) scale(0.100000,-0.100000)"
fill="#000000" stroke="none">
<path d="M7420 11650 l0 -810 275 0 275 0 0 535 0 535 2030 0 2030 0 0 -535 0
-535 275 0 275 0 0 810 0 810 -2580 0 -2580 0 0 -810z"/>
<path d="M7667 10579 c-111 -23 -206 -82 -233 -146 -21 -50 -21 -5807 0 -5858
30 -72 132 -134 258 -156 179 -32 384 56 418 179 7 28 9 916 8 2928 -3 2887
-3 2889 -23 2924 -26 44 -101 95 -168 115 -66 20 -197 27 -260 14z"/>
<path d="M9574 10576 c-124 -29 -215 -96 -231 -173 -4 -21 -8 -1332 -8 -2913
0 -2356 2 -2882 13 -2912 17 -49 89 -111 161 -140 l56 -23 1408 -3 c962 -1
1421 1 1448 8 51 14 103 69 131 139 20 47 23 74 23 176 0 111 -2 125 -29 183
-33 71 -69 106 -124 122 -24 6 -434 10 -1209 10 l-1173 0 -2 2683 c-3 2679 -3
2682 -23 2717 -26 44 -101 95 -168 115 -74 23 -200 27 -273 11z"/>
<path d="M7420 3350 l0 -810 2580 0 2580 0 0 810 0 810 -275 0 -275 0 0 -535
0 -535 -2030 0 -2030 0 0 535 0 535 -275 0 -275 0 0 -810z"/>
</g>
</svg>
